<svg xmlns="http://www.w3.org/2000/svg" viewBox="0 0 1920 1080"><defs><style>.cls-1{fill:#785690;}.cls-2{fill:#48396a;}.cls-3{fill:#173250;}.cls-4{fill:#112230;}</style></defs><title>Down - Website Triangle Animation</title><g id="Triangle_Backdrop-2" data-name="Triangle Backdrop"><g id="Purple"><path id="_58" data-name="58" class="cls-1" d="M958.223,746.155l47.228-81.8A30.9,30.9,0,0,0,978.689,618H884.233a30.9,30.9,0,0,0-26.763,46.354l47.228,81.8A30.9,30.9,0,0,0,958.223,746.155Z"/><path id="_8" data-name="8" class="cls-1" d="M214.115,445.47h0a3.635,3.635,0,0,0,3.148,5.453h0a3.635,3.635,0,0,0,3.149-5.453h0A3.635,3.635,0,0,0,214.115,445.47Z"/><path id="_6" data-name="6" class="cls-1" d="M907.791,123.718h0a3.635,3.635,0,0,0,3.149,5.453h0a3.635,3.635,0,0,0,3.149-5.453h0A3.635,3.635,0,0,0,907.791,123.718Z"/><path id="_57" data-name="57" class="cls-1" d="M1209.444,840.155l47.228-81.8A30.9,30.9,0,0,0,1229.909,712h-94.456a30.9,30.9,0,0,0-26.763,46.354l47.229,81.8A30.9,30.9,0,0,0,1209.444,840.155Z"/><path id="_45" data-name="45" class="cls-1" d="M579.818,803.905h0a30.9,30.9,0,0,0-26.762-46.354h0a30.9,30.9,0,0,0-26.763,46.354h0A30.9,30.9,0,0,0,579.818,803.905Z"/><path id="_38" data-name="38" class="cls-1" d="M340.248,173.489h0a3.635,3.635,0,0,0-3.148-5.453h0a3.636,3.636,0,0,0-3.149,5.454h0A3.636,3.636,0,0,0,340.248,173.489Z"/><path id="_35" data-name="35" class="cls-1" d="M961.347,144.441h0a9.089,9.089,0,0,0-7.871-13.634h0a9.09,9.09,0,0,0-7.872,13.634h0A9.09,9.09,0,0,0,961.347,144.441Z"/><path id="_31" data-name="31" class="cls-1" d="M905.626,166.255h0a14.542,14.542,0,0,0-12.594-21.814h0a14.543,14.543,0,0,0-12.594,21.814h0A14.542,14.542,0,0,0,905.626,166.255Z"/></g><g id="Dark_Purple" data-name="Dark Purple"><path id="_54" data-name="54" class="cls-2" d="M926.593,746.155l47.229-81.8A30.9,30.9,0,0,0,947.059,618H852.6a30.9,30.9,0,0,0-26.763,46.354l47.228,81.8A30.9,30.9,0,0,0,926.593,746.155Z"/><path id="_20" data-name="20" class="cls-2" d="M981.608,117.174h0a25.449,25.449,0,0,0,22.039,38.174h0a25.449,25.449,0,0,0,22.04-38.174h0A25.448,25.448,0,0,0,981.608,117.174Z"/><path id="_18" data-name="18" class="cls-2" d="M205.04,205.522h0A25.449,25.449,0,0,0,227.079,243.7h0a25.449,25.449,0,0,0,22.04-38.174h0A25.448,25.448,0,0,0,205.04,205.522Z"/><path id="_42" data-name="42" class="cls-2" d="M1418.553,447.56l37.783-65.442a30.9,30.9,0,0,0-26.763-46.354h-75.565a30.9,30.9,0,0,0-26.763,46.354l37.783,65.442A30.9,30.9,0,0,0,1418.553,447.56Z"/><path id="_46" data-name="46" class="cls-2" d="M830.316,958.782h0a25.45,25.45,0,0,0-22.04-38.174h0a25.45,25.45,0,0,0-22.04,38.174h0A25.45,25.45,0,0,0,830.316,958.782Z"/><path id="_43" data-name="43" class="cls-2" d="M1399.568,888.074l18.891-32.72A30.9,30.9,0,0,0,1391.7,809h-37.783a30.9,30.9,0,0,0-26.763,46.354l18.892,32.72A30.9,30.9,0,0,0,1399.568,888.074Z"/></g><g id="Blue"><path id="_56" data-name="56" class="cls-3" d="M1049.11,360.252l47.229-81.8a30.9,30.9,0,0,0-26.763-46.354H975.12a30.9,30.9,0,0,0-26.763,46.354l47.228,81.8A30.9,30.9,0,0,0,1049.11,360.252Z"/><path id="_53" data-name="53" class="cls-3" d="M747.323,690.678,860.671,494.354A30.9,30.9,0,0,0,833.908,448h-226.7a30.9,30.9,0,0,0-26.762,46.354L693.8,690.678A30.9,30.9,0,0,0,747.323,690.678Z"/><path id="_49" data-name="49" class="cls-3" d="M1748.673,271.651h0a25.449,25.449,0,0,0-22.04-38.174h0a25.449,25.449,0,0,0-22.039,38.174h0A25.449,25.449,0,0,0,1748.673,271.651Z"/><path id="_44" data-name="44" class="cls-3" d="M555.823,816.993h0a30.9,30.9,0,0,0-26.762-46.354h0A30.9,30.9,0,0,0,502.3,816.993h0A30.9,30.9,0,0,0,555.823,816.993Z"/><path id="_40" data-name="40" class="cls-3" d="M1216.779,201.847l18.891-32.721a30.9,30.9,0,0,0-26.763-46.354h-37.782a30.9,30.9,0,0,0-26.763,46.354l18.892,32.721A30.9,30.9,0,0,0,1216.779,201.847Z"/><path id="_37" data-name="37" class="cls-3" d="M340.249,897.7h0a3.635,3.635,0,0,0-3.149-5.453h0a3.635,3.635,0,0,0-3.148,5.453h0A3.635,3.635,0,0,0,340.249,897.7Z"/><path id="_34" data-name="34" class="cls-3" d="M1003.524,841.389h0a3.636,3.636,0,0,0-3.149-5.453h0a3.635,3.635,0,0,0-3.148,5.453h0A3.635,3.635,0,0,0,1003.524,841.389Z"/></g><g id="Dark_Blue" data-name="Dark Blue"><path id="_16" data-name="16" class="cls-4" d="M899.436,912.194h0a14.542,14.542,0,0,0,12.594,21.813h0a14.542,14.542,0,0,0,12.6-21.813h0A14.543,14.543,0,0,0,899.436,912.194Z"/><path id="_15" data-name="15" class="cls-4" d="M885.162,217.518h0a9.088,9.088,0,0,0,7.871,13.633h0a9.088,9.088,0,0,0,7.871-13.633h0A9.088,9.088,0,0,0,885.162,217.518Z"/><path id="_14" data-name="14" class="cls-4" d="M849.625,935.1h0a9.088,9.088,0,0,0,7.871,13.633h0a9.088,9.088,0,0,0,7.871-13.633h0A9.089,9.089,0,0,0,849.625,935.1Z"/><path id="_55" data-name="55" class="cls-4" d="M1074.2,448.508l47.228-81.8a30.9,30.9,0,0,0-26.763-46.354h-94.456a30.9,30.9,0,0,0-26.762,46.354l47.228,81.8A30.9,30.9,0,0,0,1074.2,448.508Z"/><path id="_52" data-name="52" class="cls-4" d="M1316.3,666.038l122.793-212.683A30.9,30.9,0,0,0,1412.332,407H1166.746a30.9,30.9,0,0,0-26.763,46.355l122.793,212.683A30.9,30.9,0,0,0,1316.3,666.038Z"/><path id="_51" data-name="51" class="cls-4" d="M424.027,536.452,546.82,323.769a30.9,30.9,0,0,0-26.762-46.354H274.472a30.9,30.9,0,0,0-26.763,46.354L370.5,536.452A30.9,30.9,0,0,0,424.027,536.452Z"/><path id="_47" data-name="47" class="cls-4" d="M1602.522,824.538h0a25.45,25.45,0,0,0-22.04-38.174h0a25.45,25.45,0,0,0-22.04,38.174h0A25.45,25.45,0,0,0,1602.522,824.538Z"/><path id="_41" data-name="41" class="cls-4" d="M1490.541,663.116l18.892-32.72a30.9,30.9,0,0,0-26.763-46.354h-37.783a30.9,30.9,0,0,0-26.762,46.354l18.891,32.72A30.9,30.9,0,0,0,1490.541,663.116Z"/><path id="_60" data-name="60" class="cls-4" d="M1209.541,909.075l18.892-32.72A30.9,30.9,0,0,0,1201.67,830h-37.783a30.9,30.9,0,0,0-26.762,46.355l18.891,32.72A30.9,30.9,0,0,0,1209.541,909.075Z"/><path id="_50" data-name="50" class="cls-4" d="M693.611,812.678,806.958,616.355A30.9,30.9,0,0,0,780.2,570H553.5a30.9,30.9,0,0,0-26.763,46.355L640.085,812.678A30.9,30.9,0,0,0,693.611,812.678Z"/></g></g></svg>