<svg xmlns="http://www.w3.org/2000/svg" viewBox="0 0 1920 1080"><defs><style>.cls-1{fill:#785690;}.cls-2{fill:#48396a;}.cls-3{fill:#173250;}.cls-4{fill:#112230;}</style></defs><title>Up - Website Triangle Animation</title><g id="Triangle_Backdrop-2" data-name="Triangle Backdrop"><g id="Purple"><path id="_28" data-name="28" class="cls-1" d="M893.7,306.7l-47.228,81.8a30.9,30.9,0,0,0,26.763,46.355h94.456A30.9,30.9,0,0,0,994.448,388.5L947.22,306.7A30.9,30.9,0,0,0,893.7,306.7Z"/><path id="_30" data-name="30" class="cls-1" d="M588.661,232.078,531.987,330.24a30.9,30.9,0,0,0,26.763,46.354H672.1A30.9,30.9,0,0,0,698.86,330.24l-56.674-98.162A30.9,30.9,0,0,0,588.661,232.078Z"/><path id="_21" data-name="21" class="cls-1" d="M1235.377,263.326h0a30.9,30.9,0,0,0,26.763,46.354h0a30.9,30.9,0,0,0,26.762-46.354h0A30.9,30.9,0,0,0,1235.377,263.326Z"/><path id="_11" data-name="11" class="cls-1" d="M1469.493,903.558h0a3.636,3.636,0,0,0,3.149,5.454h0a3.635,3.635,0,0,0,3.148-5.454h0A3.636,3.636,0,0,0,1469.493,903.558Z"/><path id="_2" data-name="2" class="cls-1" d="M589.146,880.654l-9.446,16.36a30.9,30.9,0,0,0,26.763,46.354h18.891a30.9,30.9,0,0,0,26.763-46.354l-9.446-16.36A30.9,30.9,0,0,0,589.146,880.654Z"/><path id="_1" data-name="1" class="cls-1" d="M301.205,431.291l-9.446,16.361a30.9,30.9,0,0,0,26.763,46.354h18.891a30.9,30.9,0,0,0,26.763-46.354l-9.446-16.361A30.9,30.9,0,0,0,301.205,431.291Z"/><path id="_36" data-name="36" class="cls-1" d="M918.81,857.75h0a9.089,9.089,0,0,0-7.871-13.634h0a9.089,9.089,0,0,0-7.871,13.634h0A9.089,9.089,0,0,0,918.81,857.75Z"/></g><g id="Dark_Purple" data-name="Dark Purple"><path id="_25" data-name="25" class="cls-2" d="M506.808,411.259,384.015,623.942A30.9,30.9,0,0,0,410.778,670.3H656.364a30.9,30.9,0,0,0,26.762-46.354L560.333,411.259A30.9,30.9,0,0,0,506.808,411.259Z"/><path id="_23" data-name="23" class="cls-2" d="M1126.318,261.289,975.188,523.054a30.9,30.9,0,0,0,26.762,46.354h302.26a30.9,30.9,0,0,0,26.763-46.354l-151.13-261.765A30.9,30.9,0,0,0,1126.318,261.289Z"/><path id="_17" data-name="17" class="cls-2" d="M798,285.14h0a14.543,14.543,0,0,0,12.6,21.814h0a14.543,14.543,0,0,0,12.594-21.814h0A14.543,14.543,0,0,0,798,285.14Z"/><path id="_9" data-name="9" class="cls-2" d="M878.259,482.554h0a3.635,3.635,0,0,0,3.149,5.453h0a3.635,3.635,0,0,0,3.148-5.453h0A3.635,3.635,0,0,0,878.259,482.554Z"/><path id="_7" data-name="7" class="cls-2" d="M878.259,510.912h0a3.635,3.635,0,0,0,3.149,5.453h0a3.635,3.635,0,0,0,3.148-5.453h0A3.635,3.635,0,0,0,878.259,510.912Z"/><path id="_3" data-name="3" class="cls-2" d="M762.566,683.786l-18.892,32.72a30.9,30.9,0,0,0,26.763,46.354H808.22a30.9,30.9,0,0,0,26.762-46.354l-18.891-32.72A30.9,30.9,0,0,0,762.566,683.786Z"/><path id="_32" data-name="32" class="cls-2" d="M1012.97,792.309h0a14.543,14.543,0,0,0-12.594-21.814h0a14.542,14.542,0,0,0-12.594,21.814h0A14.542,14.542,0,0,0,1012.97,792.309Z"/></g><g id="Blue"><path id="_24" data-name="24" class="cls-3" d="M1371.175,539.959,1248.382,752.642A30.9,30.9,0,0,0,1275.144,799H1520.73a30.9,30.9,0,0,0,26.763-46.354L1424.7,539.959A30.9,30.9,0,0,0,1371.175,539.959Z"/><path id="_22" data-name="22" class="cls-3" d="M1043,403.493,939.1,583.457a30.9,30.9,0,0,0,26.763,46.354h207.8a30.9,30.9,0,0,0,26.762-46.354l-103.9-179.964A30.9,30.9,0,0,0,1043,403.493Z"/><path id="_12" data-name="12" class="cls-3" d="M1601.467,592.712h0a3.635,3.635,0,0,0,3.148,5.454h0a3.636,3.636,0,0,0,3.149-5.454h0A3.636,3.636,0,0,0,1601.467,592.712Z"/><path id="_5" data-name="5" class="cls-3" d="M205.04,257.874h0a25.449,25.449,0,0,0,22.039,38.174h0a25.449,25.449,0,0,0,22.04-38.174h0A25.449,25.449,0,0,0,205.04,257.874Z"/><path id="_4" data-name="4" class="cls-3" d="M453.356,169.526l-18.891,32.721A30.9,30.9,0,0,0,461.227,248.6H499.01a30.9,30.9,0,0,0,26.762-46.354l-18.891-32.721A30.9,30.9,0,0,0,453.356,169.526Z"/><path id="_26" data-name="26" class="cls-3" d="M763.013,722.1l-37.782,65.441A30.9,30.9,0,0,0,751.993,833.9h75.565a30.9,30.9,0,0,0,26.763-46.354L816.538,722.1A30.9,30.9,0,0,0,763.013,722.1Z"/><path id="_48" data-name="48" class="cls-3" d="M786.689,882.434h0a25.45,25.45,0,0,0-22.04-38.174h0a25.45,25.45,0,0,0-22.04,38.174h0A25.45,25.45,0,0,0,786.689,882.434Z"/></g><g id="Dark_Blue" data-name="Dark Blue"><path id="_19" data-name="19" class="cls-4" d="M1025.235,185.522h0a25.45,25.45,0,0,0,22.04,38.174h0a25.45,25.45,0,0,0,22.04-38.174h0A25.449,25.449,0,0,0,1025.235,185.522Z"/><path id="_13" data-name="13" class="cls-4" d="M806.357,234.968h0a3.635,3.635,0,0,0,3.148,5.453h0a3.636,3.636,0,0,0,3.149-5.453h0A3.635,3.635,0,0,0,806.357,234.968Z"/><path id="_27" data-name="27" class="cls-4" d="M382.364,626.123l-37.783,65.441a30.9,30.9,0,0,0,26.763,46.354h75.565a30.9,30.9,0,0,0,26.762-46.354l-37.782-65.441A30.9,30.9,0,0,0,382.364,626.123Z"/><path id="_59" data-name="59" class="cls-4" d="M1117.823,729.993h0a30.9,30.9,0,0,0-26.762-46.354h0a30.9,30.9,0,0,0-26.763,46.354h0A30.9,30.9,0,0,0,1117.823,729.993Z"/><path id="_39" data-name="39" class="cls-4" d="M1595.628,629.4h0a3.635,3.635,0,0,0-3.149-5.453h0a3.635,3.635,0,0,0-3.149,5.453h0A3.635,3.635,0,0,0,1595.628,629.4Z"/><path id="_29" data-name="29" class="cls-4" d="M865.972,327.6l-47.228,81.8a30.9,30.9,0,0,0,26.763,46.354h94.456a30.9,30.9,0,0,0,26.763-46.354L919.5,327.6A30.9,30.9,0,0,0,865.972,327.6Z"/></g></g></svg>